<svg width="32" height="32" viewBox="0 0 32 32" fill="none" xmlns="http://www.w3.org/2000/svg">
<path d="M16 8.61523L16 12.3075L30.7692 12.3075L30.7692 8.61524L16 8.61523Z" fill="white"/>
<path d="M8.61523 16L12.3075 16L12.3075 1.23077L8.61523 1.23077L8.61523 16Z" fill="white"/>
<path d="M19.6924 30.769L23.3847 30.769L23.3847 15.9998L19.6924 15.9998L19.6924 30.769Z" fill="white"/>
<path d="M1.23047 19.6919L1.23047 23.3842L15.9997 23.3842L15.9997 19.6919L1.23047 19.6919Z" fill="white"/>
<path fill-rule="evenodd" clip-rule="evenodd" d="M16.0002 19.6922C13.9609 19.6922 12.3078 18.0391 12.3078 15.9998C12.3078 13.9606 13.9609 12.3075 16.0002 12.3075C18.0394 12.3075 19.6925 13.9606 19.6925 15.9998C19.6925 18.0391 18.0394 19.6922 16.0002 19.6922ZM16.0002 23.3845C11.9217 23.3845 8.61554 20.0783 8.61554 15.9998C8.61554 11.9214 11.9217 8.61524 16.0002 8.61524C20.0786 8.61523 23.3848 11.9214 23.3848 15.9998C23.3848 20.0783 20.0786 23.3845 16.0002 23.3845Z" fill="white"/>
<path fill-rule="evenodd" clip-rule="evenodd" d="M16.0002 19.6923C13.9609 19.6923 12.3078 18.0392 12.3078 16C12.3078 13.9608 13.9609 12.3077 16.0002 12.3077C18.0394 12.3077 19.6925 13.9608 19.6925 16C19.6925 18.0392 18.0394 19.6923 16.0002 19.6923ZM16.0002 23.3846C11.9217 23.3846 8.61554 20.0784 8.61554 16C8.61554 11.9216 11.9217 8.61536 16.0002 8.61536C20.0786 8.61536 23.3848 11.9216 23.3848 16C23.3848 20.0784 20.0786 23.3846 16.0002 23.3846Z" fill="white"/>
<path d="M6.15384 17.2262V12.0045L2.61086 8.46155L0 11.0724L6.15384 17.2262Z" fill="white"/>
<path d="M14.7734 6.15384H19.9951L23.5381 2.61086L20.9273 0L14.7734 6.15384Z" fill="white"/>
<path d="M25.8457 14.7739L25.8457 19.9956L29.3887 23.5386L31.9995 20.9278L25.8457 14.7739Z" fill="white"/>
<path d="M17.2266 25.8462L12.0049 25.8462L8.46191 29.3892L11.0728 32L17.2266 25.8462Z" fill="white"/>
</svg>
