<svg width="153" height="32" viewBox="0 0 153 32" fill="none" xmlns="http://www.w3.org/2000/svg">
<g clip-path="url(#clip0_209_823)">
<path d="M16.2393 8.61523L16.2393 12.3075L31.2289 12.3075L31.2289 8.61524L16.2393 8.61523Z" fill="white"/>
<path d="M8.74414 16L12.4916 16L12.4916 1.23077L8.74414 1.23077L8.74414 16Z" fill="white"/>
<path d="M19.9863 30.769L23.7337 30.769L23.7337 15.9998L19.9863 15.9998L19.9863 30.769Z" fill="white"/>
<path d="M1.24902 19.6919L1.24902 23.3842L16.2387 23.3842L16.2387 19.6919L1.24902 19.6919Z" fill="white"/>
<path fill-rule="evenodd" clip-rule="evenodd" d="M16.2386 19.6922C14.1689 19.6922 12.4912 18.0391 12.4912 15.9998C12.4912 13.9606 14.1689 12.3075 16.2386 12.3075C18.3082 12.3075 19.986 13.9606 19.986 15.9998C19.986 18.0391 18.3082 19.6922 16.2386 19.6922ZM16.2386 23.3845C12.0993 23.3845 8.74373 20.0783 8.74373 15.9998C8.74373 11.9214 12.0993 8.61524 16.2386 8.61524C20.3778 8.61523 23.7334 11.9214 23.7334 15.9998C23.7334 20.0783 20.3778 23.3845 16.2386 23.3845Z" fill="white"/>
<path fill-rule="evenodd" clip-rule="evenodd" d="M16.2386 19.6923C14.1689 19.6923 12.4912 18.0392 12.4912 16C12.4912 13.9608 14.1689 12.3077 16.2386 12.3077C18.3082 12.3077 19.986 13.9608 19.986 16C19.986 18.0392 18.3082 19.6923 16.2386 19.6923ZM16.2386 23.3846C12.0993 23.3846 8.74373 20.0784 8.74373 16C8.74373 11.9216 12.0993 8.61536 16.2386 8.61536C20.3778 8.61536 23.7334 11.9216 23.7334 16C23.7334 20.0784 20.3778 23.3846 16.2386 23.3846Z" fill="white"/>
<path d="M6.24569 17.2262V12.0045L2.64982 8.46155L0 11.0724L6.24569 17.2262Z" fill="white"/>
<path d="M14.9941 6.15384H20.2938L23.8897 2.61086L21.2398 0L14.9941 6.15384Z" fill="white"/>
<path d="M26.2314 14.7739L26.2314 19.9956L29.8273 23.5386L32.4771 20.9278L26.2314 14.7739Z" fill="white"/>
<path d="M17.4834 25.8462L12.1838 25.8462L8.58789 29.3892L11.2377 32L17.4834 25.8462Z" fill="white"/>
<path d="M138.081 23.1308C136.853 23.1308 135.751 22.8584 134.776 22.3135C133.817 21.7522 133.06 20.9928 132.505 20.0353C131.95 19.0612 131.673 17.9633 131.673 16.7417C131.673 15.5035 131.95 14.4056 132.505 13.448C133.06 12.4905 133.817 11.7393 134.776 11.1945C135.751 10.6497 136.853 10.3773 138.081 10.3773C139.308 10.3773 140.402 10.6497 141.36 11.1945C142.319 11.7393 143.076 12.4905 143.631 13.448C144.186 14.4056 144.463 15.5035 144.463 16.7417C144.463 17.9633 144.186 19.0612 143.631 20.0353C143.076 20.9928 142.319 21.7522 141.36 22.3135C140.402 22.8584 139.308 23.1308 138.081 23.1308ZM138.081 19.8619C138.636 19.8619 139.107 19.7463 139.493 19.5152C139.88 19.2676 140.166 18.9126 140.351 18.4504C140.553 17.9716 140.654 17.402 140.654 16.7417C140.654 16.0648 140.553 15.5035 140.351 15.0577C140.166 14.5954 139.88 14.2487 139.493 14.0176C139.107 13.77 138.636 13.6462 138.081 13.6462C137.526 13.6462 137.055 13.77 136.668 14.0176C136.281 14.2487 135.987 14.5954 135.785 15.0577C135.583 15.5035 135.482 16.0648 135.482 16.7417C135.482 17.402 135.583 17.9716 135.785 18.4504C135.987 18.9126 136.281 19.2676 136.668 19.5152C137.055 19.7463 137.526 19.8619 138.081 19.8619Z" fill="white"/>
<path d="M129.152 23.1308C128.244 23.1308 127.479 22.8666 126.856 22.3383C126.234 21.7935 125.923 20.935 125.923 19.7629V8H129.707V19.02C129.707 19.2676 129.774 19.4409 129.909 19.54C130.06 19.6391 130.245 19.6886 130.464 19.6886C130.598 19.6886 130.725 19.6803 130.842 19.6638C130.977 19.6308 131.111 19.5978 131.246 19.5648V22.7346C130.859 22.8831 130.481 22.9822 130.111 23.0317C129.757 23.0978 129.438 23.1308 129.152 23.1308Z" fill="white"/>
<path d="M120.164 22.8584V12.4575H123.948V22.8584H120.164Z" fill="white"/>
<path d="M120.164 8.00001V10.9717H123.948V8.00001H120.164Z" fill="white"/>
<path fill-rule="evenodd" clip-rule="evenodd" d="M43.0273 22.1697C44.1433 22.7939 45.4035 23.106 46.808 23.106C48.2125 23.106 49.4631 22.7939 50.5598 22.1697C50.5648 22.1668 50.5698 22.1639 50.5747 22.161L52.3763 23.9999L55.1039 21.4252L53.2006 19.4824C53.8066 18.3858 54.1096 17.1538 54.1096 15.7864C54.1096 14.3679 53.7922 13.1101 53.1572 12.0132C52.5223 10.9162 51.6565 10.0556 50.5598 9.43146C49.4631 8.80731 48.2125 8.49524 46.808 8.49524C45.4035 8.49524 44.1433 8.80731 43.0273 9.43146C41.9306 10.0556 41.0648 10.9162 40.4299 12.0132C39.795 13.1101 39.4775 14.3679 39.4775 15.7864C39.4775 17.186 39.795 18.4438 40.4299 19.5597C41.0648 20.6567 41.9306 21.5267 43.0273 22.1697ZM48.4242 18.9639C47.9817 19.2287 47.4429 19.3611 46.808 19.3611C46.1731 19.3611 45.6344 19.2287 45.1918 18.9639C44.7493 18.6802 44.4126 18.2736 44.1817 17.744C43.9509 17.1955 43.8354 16.543 43.8354 15.7864C43.8354 15.011 43.9509 14.3679 44.1817 13.8572C44.4126 13.3277 44.7493 12.9305 45.1918 12.6657C45.6344 12.382 46.1731 12.2401 46.808 12.2401C47.4429 12.2401 47.9817 12.382 48.4242 12.6657C48.8667 12.9305 49.1938 13.3277 49.4054 13.8572C49.6363 14.3679 49.7518 15.011 49.7518 15.7864C49.7518 16.543 49.6363 17.1955 49.4054 17.744C49.1938 18.2736 48.8667 18.6802 48.4242 18.9639Z" fill="white"/>
<path fill-rule="evenodd" clip-rule="evenodd" d="M76.8385 21.5317L77.1181 22.8585H80.5996V15.1074C80.5996 13.6545 80.095 12.5071 79.0859 11.6652C78.0936 10.8067 76.7145 10.3774 74.9485 10.3774C73.8722 10.3774 72.8631 10.5095 71.9212 10.7737C70.9962 11.0213 70.0375 11.4671 69.0452 12.1109L70.6598 14.7359C71.1644 14.3892 71.7867 14.1003 72.5267 13.8692C73.2667 13.6215 73.9647 13.4977 74.6206 13.4977C75.2429 13.4977 75.7642 13.6215 76.1847 13.8692C76.6052 14.1168 76.8154 14.5295 76.8154 15.1074V15.3055H73.3844C72.8294 15.3055 72.308 15.355 71.8203 15.4541C71.3326 15.5531 70.8953 15.7099 70.5085 15.9246C69.9871 16.2052 69.5666 16.6097 69.2471 17.138C68.9443 17.6663 68.793 18.2854 68.793 18.9953C68.793 19.8208 69.0032 20.5472 69.4237 21.1745C69.8609 21.8019 70.4412 22.2889 71.1644 22.6356C71.9044 22.9658 72.7201 23.1309 73.6115 23.1309C74.0824 23.1309 74.5617 23.0483 75.0494 22.8832C75.554 22.7181 76.0249 22.4127 76.4622 21.967C76.5932 21.8384 76.7186 21.6933 76.8385 21.5317ZM76.812 18.0543C76.7914 18.4331 76.6748 18.7715 76.4622 19.0696C76.2267 19.3998 75.9072 19.6639 75.5035 19.862C75.1167 20.0436 74.6878 20.1344 74.2169 20.1344C73.7292 20.1344 73.334 20.0354 73.0312 19.8373C72.7453 19.6227 72.6024 19.342 72.6024 18.9953C72.6024 18.8467 72.636 18.7146 72.7033 18.5991C72.7705 18.467 72.863 18.3597 72.9808 18.2771C73.0985 18.1946 73.233 18.1368 73.3844 18.1038C73.5526 18.0708 73.7376 18.0543 73.9394 18.0543H76.812Z" fill="white"/>
<path d="M82.4668 10.6498V22.8585H86.2762V17.1628C86.2762 16.3373 86.3603 15.6687 86.5285 15.1569C86.6966 14.6286 86.9489 14.2406 87.2853 13.993C87.6385 13.7453 88.0842 13.6215 88.6224 13.6215C89.3119 13.6215 89.8081 13.8196 90.1108 14.2159C90.4304 14.6121 90.5901 15.2477 90.5901 16.1227V22.8585H94.3995V14.7359C94.3995 13.3986 93.9959 12.342 93.1886 11.5661C92.3813 10.7737 91.2545 10.3774 89.8081 10.3774C89.2867 10.3774 88.7485 10.4682 88.1935 10.6498C87.6553 10.8314 87.1676 11.1534 86.7303 11.6156C86.5613 11.7879 86.41 11.9884 86.2762 12.2173V10.6498H82.4668Z" fill="white"/>
<path d="M57.6805 22.5074C58.37 22.9202 59.2614 23.1265 60.3546 23.1265C61.1451 23.1265 61.8767 22.9449 62.5495 22.5817C63.0432 22.3217 63.4637 21.9092 63.8108 21.3444V22.8541H67.6202V10.6455H63.8108V14.682C63.8108 15.6396 63.7772 16.5146 63.7099 17.307C63.6426 18.0995 63.4492 18.7268 63.1297 19.1891C62.8269 19.6513 62.2888 19.8825 61.5151 19.8825C60.9096 19.8825 60.464 19.7586 60.178 19.511C59.8921 19.2634 59.7071 18.9579 59.623 18.5947C59.5389 18.215 59.4969 17.8271 59.4969 17.4308V10.6455H55.6875V18.1985C55.6875 19.1561 55.8473 20.0063 56.1668 20.7492C56.4864 21.4921 56.9909 22.0782 57.6805 22.5074Z" fill="white"/>
<path d="M99.5265 22.7347C100.166 22.9988 100.838 23.1309 101.545 23.1309C101.948 23.1309 102.335 23.0979 102.705 23.0318C103.075 22.9658 103.445 22.8667 103.815 22.7347V19.8868C103.58 19.9528 103.361 20.0024 103.159 20.0354C102.957 20.0684 102.772 20.0849 102.604 20.0849C102.049 20.0849 101.679 19.9033 101.494 19.5401C101.309 19.1769 101.217 18.6321 101.217 17.9057V13.5472H103.815V10.6498H101.217V8.06201H97.3822V10.6498H95.3135V13.5472H97.3822V18.9705C97.3822 20.0106 97.5756 20.8361 97.9624 21.4469C98.366 22.0413 98.8874 22.4705 99.5265 22.7347Z" fill="white"/>
<path fill-rule="evenodd" clip-rule="evenodd" d="M118.535 15.6026L118.535 15.6031C118.311 16.2368 117.947 16.7864 117.447 17.2503C116.952 17.7085 116.31 18.0634 115.528 18.318C114.742 18.5736 113.792 18.6996 112.68 18.6996H110.04V23.1228H105.75V8.37158H112.68C113.792 8.37158 114.742 8.49756 115.527 8.75304C116.31 9.0005 116.952 9.35541 117.447 9.82088C117.948 10.2778 118.311 10.8238 118.535 11.4574C118.758 12.0869 118.868 12.7765 118.868 13.5249C118.868 14.2733 118.758 14.9663 118.535 15.6026ZM113.957 12.1995C113.364 11.7853 112.507 11.7613 111.81 11.7613H110.04V15.3099H111.81C112.335 15.3099 112.773 15.2816 113.127 15.2259C113.478 15.1635 113.754 15.0647 113.96 14.9338C114.165 14.797 114.307 14.6237 114.391 14.4126L114.392 14.4111L114.393 14.4097C114.486 14.1932 114.535 13.9211 114.535 13.5892C114.535 13.0741 114.407 12.5142 113.957 12.1995Z" fill="white"/>
<path d="M148.607 22.7345C149.246 22.9987 149.918 23.1307 150.625 23.1307C151.028 23.1307 151.415 23.0977 151.785 23.0317C152.155 22.9657 152.525 22.8666 152.895 22.7345V19.8867C152.66 19.9527 152.441 20.0022 152.239 20.0353C152.038 20.0683 151.853 20.0848 151.684 20.0848C151.129 20.0848 150.759 19.9032 150.574 19.54C150.389 19.1768 150.297 18.632 150.297 17.9056V13.5471H152.895V10.6497H150.297V8.06189H146.462V10.6497H144.394V13.5471H146.462V18.9704C146.462 20.0105 146.656 20.836 147.042 21.4468C147.446 22.0411 147.967 22.4704 148.607 22.7345Z" fill="white"/>
</g>
<defs>
<clipPath id="clip0_209_823">
<rect width="152.896" height="32" fill="white"/>
</clipPath>
</defs>
</svg>
