<svg width="60" height="17" viewBox="0 0 60 17" fill="none" xmlns="http://www.w3.org/2000/svg">
<g clip-path="url(#clip0_1_4)">
<path d="M9.64453 15.5664C9.47266 15.5664 9.00977 15.2324 8.25586 14.5645L6.85547 13.2812C6.19531 13.5469 5.54102 13.6797 4.89258 13.6797C3.7168 13.6797 2.68164 13.2109 1.78711 12.2734C0.896484 11.3359 0.451172 10.2754 0.451172 9.0918C0.451172 7.69727 0.970703 6.51367 2.00977 5.54102C3.02539 4.5957 4.22656 4.12305 5.61328 4.12305C7.07422 4.12305 8.18164 4.66992 8.93555 5.76367C9.57617 6.70117 9.89648 7.91406 9.89648 9.40234C9.89648 10.6953 9.26367 11.7832 7.99805 12.666L9.27539 13.8438L10.0312 14.4883C10.1797 14.6289 10.2539 14.7812 10.2539 14.9453C10.2539 15.1055 10.1934 15.248 10.0723 15.373C9.95508 15.502 9.8125 15.5664 9.64453 15.5664ZM5.61328 5.33594C4.54297 5.33594 3.62109 5.69336 2.84766 6.4082C2.05078 7.14258 1.65234 8.03711 1.65234 9.0918C1.65234 9.94727 1.98242 10.7207 2.64258 11.4121C3.30664 12.1152 4.05664 12.4668 4.89258 12.4668C5.16211 12.4668 5.43945 12.4336 5.72461 12.3672C4.9707 11.7109 4.59375 11.1934 4.59375 10.8145C4.59375 10.6426 4.65625 10.5 4.78125 10.3867C4.91016 10.2734 5.05273 10.2168 5.20898 10.2168C5.39648 10.2168 5.5625 10.3105 5.70703 10.498C6.09375 11.002 6.53125 11.4531 7.01953 11.8516C8.13281 11.2031 8.68945 10.3867 8.68945 9.40234C8.68945 8.24219 8.45312 7.30078 7.98047 6.57812C7.44141 5.75 6.65234 5.33594 5.61328 5.33594ZM16.1191 9.57812C16.1191 9.85938 16.1211 10.2812 16.125 10.8438C16.1289 11.4062 16.1309 11.8281 16.1309 12.1094C16.1309 12.1953 16.1367 12.3262 16.1484 12.502C16.1641 12.6777 16.1719 12.8086 16.1719 12.8945C16.1719 13.0625 16.1152 13.1992 16.002 13.3047C15.8887 13.4141 15.75 13.4688 15.5859 13.4688C15.2852 13.4688 15.0938 13.2832 15.0117 12.9121C14.5234 13.166 13.9609 13.293 13.3242 13.293C12.8125 13.293 12.3887 13.1797 12.0527 12.9531C11.6816 12.7031 11.4609 12.3379 11.3906 11.8574C11.2383 10.8223 11.1621 9.90039 11.1621 9.0918C11.1621 8.55664 11.2207 7.94727 11.3379 7.26367C11.3926 6.92383 11.5781 6.75391 11.8945 6.75391C12.0625 6.75391 12.2031 6.80859 12.3164 6.91797C12.4297 7.02344 12.4863 7.16016 12.4863 7.32812C12.4863 7.50781 12.457 7.79492 12.3984 8.18945C12.3438 8.58398 12.3164 8.88477 12.3164 9.0918C12.3164 9.74414 12.3379 10.3027 12.3809 10.7676C12.4238 11.2324 12.4883 11.6055 12.5742 11.8867C12.7031 11.957 12.8301 12.0117 12.9551 12.0508C13.0801 12.0859 13.2031 12.1035 13.3242 12.1035C13.8477 12.1035 14.4004 12.0195 14.9824 11.8516L14.9766 10.6621L14.9648 9.52539C14.9648 8.68164 15.002 7.94922 15.0762 7.32812C15.1191 6.96875 15.3086 6.78906 15.6445 6.78906C15.8125 6.78906 15.9531 6.84375 16.0664 6.95312C16.1797 7.0625 16.2324 7.19922 16.2246 7.36328L16.1191 9.57812ZM22.1602 13.3867C22.0859 13.3867 21.9512 13.3008 21.7559 13.1289C21.5801 12.9688 21.4492 12.8262 21.3633 12.7012C20.9883 12.9043 20.6582 13.0566 20.373 13.1582C20.0879 13.2637 19.8496 13.3164 19.6582 13.3164C18.7441 13.3164 18.0781 13.0586 17.6602 12.543C17.2656 12.0586 17.0684 11.3164 17.0684 10.3164C17.0684 9.37109 17.3926 8.5625 18.041 7.89062C18.6934 7.21875 19.4707 6.88281 20.373 6.88281C20.7129 6.88281 21.0938 6.9707 21.5156 7.14648C22.0469 7.36523 22.3125 7.62891 22.3125 7.9375C22.3125 8.04297 22.2734 8.13672 22.1953 8.21875C22.1562 8.36719 22.125 8.61133 22.1016 8.95117C22.082 9.29102 22.0703 9.72656 22.0664 10.2578C22.0625 10.7422 22.0957 11.125 22.166 11.4062C22.2051 11.5781 22.3281 11.9219 22.5352 12.4375C22.5625 12.5078 22.6074 12.6113 22.6699 12.748L22.7051 12.8477C22.7051 13.0039 22.6504 13.1328 22.541 13.2344C22.4316 13.3359 22.3047 13.3867 22.1602 13.3867ZM20.9414 9.31445C20.9414 9.14648 20.9512 8.96484 20.9707 8.76953C20.9941 8.57031 21.0273 8.35938 21.0703 8.13672C20.9258 8.0625 20.8008 8.00781 20.6953 7.97266C20.5938 7.9375 20.5117 7.91992 20.4492 7.91992C19.8438 7.91992 19.3203 8.16797 18.8789 8.66406C18.4414 9.15625 18.2227 9.72461 18.2227 10.3691C18.2227 11.0098 18.3359 11.4902 18.5625 11.8105C18.7891 12.1309 19.1289 12.291 19.582 12.291C19.957 12.291 20.2754 12.2227 20.5371 12.0859C20.6777 12.0117 20.875 11.8633 21.1289 11.6406C21.0039 10.6055 20.9414 9.83008 20.9414 9.31445ZM28.2188 13.416C27.8828 13.416 27.6934 13.2324 27.6504 12.8652L27.4863 11.582C27.4316 11.125 27.4043 10.6973 27.4043 10.2988C27.4043 10.1895 27.4102 10.0039 27.4219 9.74219C27.4375 9.48047 27.4453 9.29492 27.4453 9.18555C27.4453 8.3418 27.2891 7.91992 26.9766 7.91992C26.5391 7.91992 26.1211 8.17969 25.7227 8.69922C25.3633 9.17188 25.082 9.76953 24.8789 10.4922C24.8711 10.6445 24.8535 10.8359 24.8262 11.0664C24.8027 11.2617 24.791 11.4512 24.791 11.6348C24.791 11.752 24.8027 11.9277 24.8262 12.1621C24.8496 12.3965 24.8613 12.5723 24.8613 12.6895C24.8613 12.8652 24.8066 13.0078 24.6973 13.1172C24.5918 13.2266 24.4551 13.2812 24.2871 13.2812C24.1152 13.2812 23.9766 13.2266 23.8711 13.1172C23.7656 13.0078 23.7129 12.8652 23.7129 12.6895C23.7129 12.5723 23.6992 12.3965 23.6719 12.1621C23.6484 11.9277 23.6367 11.752 23.6367 11.6348C23.6367 11.2324 23.6641 10.6758 23.7188 9.96484C23.7773 9.25 23.8066 8.69141 23.8066 8.28906C23.8066 8.16406 23.7988 7.97852 23.7832 7.73242C23.7715 7.48633 23.7656 7.30078 23.7656 7.17578C23.7656 7.00781 23.8203 6.87109 23.9297 6.76562C24.043 6.65625 24.1816 6.60156 24.3457 6.60156C24.7051 6.60156 24.9023 6.85547 24.9375 7.36328L24.9551 8.04883C25.6113 7.17383 26.2852 6.73633 26.9766 6.73633C27.6016 6.73633 28.0371 7.01172 28.2832 7.5625C28.4512 7.92969 28.543 8.47266 28.5586 9.19141V9.7832L28.5527 10.3281C28.5527 10.6523 28.5938 11.0723 28.6758 11.5879C28.7617 12.0996 28.8047 12.5156 28.8047 12.8359C28.8047 13.0078 28.748 13.1465 28.6348 13.252C28.5254 13.3613 28.3867 13.416 28.2188 13.416ZM33.9258 8.00781C33.8438 8.00781 33.7461 8.00391 33.6328 7.99609C33.5234 7.98828 33.4277 7.98438 33.3457 7.98438C33.2559 7.98438 32.9902 8.01367 32.5488 8.07227L32.6602 11.5352L32.666 11.793L32.6719 12.0918C32.6875 12.9473 32.4824 13.375 32.0566 13.375C31.9004 13.375 31.7637 13.3242 31.6465 13.2227C31.5332 13.1211 31.4766 12.9941 31.4766 12.8418C31.4766 12.6934 31.4824 12.4707 31.4941 12.1738C31.5059 11.877 31.5117 11.6543 31.5117 11.5059L31.3945 8.08398C31.1094 8.07227 30.6758 8.03906 30.0938 7.98438C29.7461 7.9375 29.5723 7.74414 29.5723 7.4043C29.5723 7.23242 29.625 7.08984 29.7305 6.97656C29.8359 6.86328 29.9707 6.80664 30.1348 6.80664L31.3652 6.90625C31.3652 6.70703 31.3555 6.44141 31.3359 6.10938C31.3203 5.77344 31.3125 5.53125 31.3125 5.38281C31.3125 5.21875 31.3691 5.08398 31.4824 4.97852C31.5957 4.86914 31.7344 4.81445 31.8984 4.81445C32.25 4.81445 32.4551 5.10156 32.5137 5.67578C32.5254 5.82031 32.5312 5.99414 32.5312 6.19727L32.5195 6.53711L32.5137 6.90039C32.998 6.83789 33.2754 6.80664 33.3457 6.80664C33.752 6.80664 34.0176 6.82617 34.1426 6.86523C34.3809 6.94336 34.5 7.12695 34.5 7.41602C34.5 7.58789 34.4453 7.73047 34.3359 7.84375C34.2305 7.95312 34.0938 8.00781 33.9258 8.00781ZM37.2715 9.56055C37.1621 9.56055 36.9238 9.53516 36.5566 9.48438C36.5254 10.0742 36.5098 11.1074 36.5098 12.584C36.5098 12.7402 36.459 12.873 36.3574 12.9824C36.2559 13.0879 36.1289 13.1406 35.9766 13.1406C35.8203 13.1406 35.6914 13.0879 35.5898 12.9824C35.4883 12.873 35.4375 12.7402 35.4375 12.584V10.8613C35.4375 10.2871 35.4727 9.47852 35.543 8.43555C35.6211 7.30664 35.6641 6.49805 35.6719 6.00977V5.20117C35.6719 4.81445 35.6953 4.5332 35.7422 4.35742C35.832 4.01367 36.0234 3.86523 36.3164 3.91211C36.4414 3.87305 36.6191 3.84375 36.8496 3.82422C37.0801 3.80469 37.3633 3.79492 37.6992 3.79492C38.4141 3.79492 39.084 4.03906 39.709 4.52734C40.3965 5.06641 40.7402 5.71484 40.7402 6.47266C40.7402 7.44141 40.373 8.21289 39.6387 8.78711C38.9824 9.30273 38.1934 9.56055 37.2715 9.56055ZM37.5645 4.9082C37.3926 4.9082 37.2383 4.91211 37.1016 4.91992C36.9688 4.92773 36.8555 4.93945 36.7617 4.95508L36.75 6.0332L36.627 8.36523L37.2715 8.44141C37.9277 8.44141 38.4805 8.27539 38.9297 7.94336C39.4219 7.58008 39.668 7.08984 39.668 6.47266C39.668 6.03516 39.4336 5.6582 38.9648 5.3418C38.5312 5.05273 38.0645 4.9082 37.5645 4.9082ZM43.0312 5.58203C42.8438 5.58203 42.6816 5.51562 42.5449 5.38281C42.4082 5.25 42.3398 5.08984 42.3398 4.90234C42.3398 4.71484 42.4082 4.55469 42.5449 4.42188C42.6816 4.28906 42.8438 4.22266 43.0312 4.22266C43.2188 4.22266 43.3789 4.28906 43.5117 4.42188C43.6484 4.55469 43.7168 4.71484 43.7168 4.90234C43.7168 5.08984 43.6484 5.25 43.5117 5.38281C43.3789 5.51562 43.2188 5.58203 43.0312 5.58203ZM43.2949 10.3398C43.2949 10.5742 43.3008 10.9258 43.3125 11.3945C43.3281 11.8594 43.3359 12.209 43.3359 12.4434C43.3359 12.6152 43.2832 12.7559 43.1777 12.8652C43.0723 12.9746 42.9336 13.0293 42.7617 13.0293C42.5938 13.0293 42.4551 12.9746 42.3457 12.8652C42.2402 12.7559 42.1875 12.6152 42.1875 12.4434C42.1875 12.209 42.1797 11.8594 42.1641 11.3945C42.1523 10.9258 42.1465 10.5742 42.1465 10.3398C42.1465 9.97266 42.166 9.51562 42.2051 8.96875C42.2441 8.41797 42.2637 7.95898 42.2637 7.5918C42.2637 7.41602 42.3164 7.27344 42.4219 7.16406C42.5312 7.05469 42.6699 7 42.8379 7C43.0059 7 43.1426 7.05469 43.248 7.16406C43.3574 7.27344 43.4121 7.41602 43.4121 7.5918C43.4121 7.95898 43.3926 8.41797 43.3535 8.96875C43.3145 9.51562 43.2949 9.97266 43.2949 10.3398ZM46.7637 8.39453L46.6758 11.3066C46.6758 11.6152 46.6602 12.0684 46.6289 12.666C46.5898 13.0566 46.3984 13.252 46.0547 13.252C45.6719 13.252 45.4805 13.0527 45.4805 12.6543C45.4805 12.1816 45.502 11.4727 45.5449 10.5273C45.5879 9.57812 45.6094 8.86719 45.6094 8.39453C45.6094 7.77734 45.6191 7.07227 45.6387 6.2793C45.6582 5.48242 45.668 4.77539 45.668 4.1582C45.668 3.76758 45.8594 3.57227 46.2422 3.57227C46.6289 3.57227 46.8223 3.76758 46.8223 4.1582C46.8223 4.77539 46.8125 5.48242 46.793 6.2793C46.7734 7.07227 46.7637 7.77734 46.7637 8.39453ZM50.7656 13.3457C50.1094 13.3457 49.5449 13.1035 49.0723 12.6191C48.5449 12.0801 48.2676 11.3555 48.2402 10.4453C48.2168 9.5625 48.4395 8.78516 48.9082 8.11328C49.4551 7.32031 50.2168 6.92383 51.1934 6.92383C51.9746 6.92383 52.5664 7.28125 52.9688 7.99609C53.2891 8.57422 53.4434 9.26953 53.4316 10.082C53.4199 10.9492 53.1934 11.6895 52.752 12.3027C52.252 12.998 51.5898 13.3457 50.7656 13.3457ZM51.1172 8.11328C50.543 8.10938 50.0957 8.38281 49.7754 8.93359C49.5215 9.375 49.3945 9.87891 49.3945 10.4453C49.3945 11.0117 49.5488 11.4531 49.8574 11.7695C50.1152 12.0312 50.418 12.1621 50.7656 12.1621C51.1719 12.1621 51.5215 12.0137 51.8145 11.7168C52.1465 11.3887 52.3223 10.9453 52.3418 10.3867C52.3965 8.875 51.9883 8.11719 51.1172 8.11328ZM58.8047 8.00781C58.7227 8.00781 58.625 8.00391 58.5117 7.99609C58.4023 7.98828 58.3066 7.98438 58.2246 7.98438C58.1348 7.98438 57.8691 8.01367 57.4277 8.07227L57.5391 11.5352L57.5449 11.793L57.5508 12.0918C57.5664 12.9473 57.3613 13.375 56.9355 13.375C56.7793 13.375 56.6426 13.3242 56.5254 13.2227C56.4121 13.1211 56.3555 12.9941 56.3555 12.8418C56.3555 12.6934 56.3613 12.4707 56.373 12.1738C56.3848 11.877 56.3906 11.6543 56.3906 11.5059L56.2734 8.08398C55.9883 8.07227 55.5547 8.03906 54.9727 7.98438C54.625 7.9375 54.4512 7.74414 54.4512 7.4043C54.4512 7.23242 54.5039 7.08984 54.6094 6.97656C54.7148 6.86328 54.8496 6.80664 55.0137 6.80664L56.2441 6.90625C56.2441 6.70703 56.2344 6.44141 56.2148 6.10938C56.1992 5.77344 56.1914 5.53125 56.1914 5.38281C56.1914 5.21875 56.248 5.08398 56.3613 4.97852C56.4746 4.86914 56.6133 4.81445 56.7773 4.81445C57.1289 4.81445 57.334 5.10156 57.3926 5.67578C57.4043 5.82031 57.4102 5.99414 57.4102 6.19727L57.3984 6.53711L57.3926 6.90039C57.877 6.83789 58.1543 6.80664 58.2246 6.80664C58.6309 6.80664 58.8965 6.82617 59.0215 6.86523C59.2598 6.94336 59.3789 7.12695 59.3789 7.41602C59.3789 7.58789 59.3242 7.73047 59.2148 7.84375C59.1094 7.95312 58.9727 8.00781 58.8047 8.00781Z" fill="black"/>
</g>
<defs>
<clipPath id="clip0_1_4">
<rect width="60" height="17" fill="white"/>
</clipPath>
</defs>
</svg>
